HIERARCHY
ROOT Hips
{
    OFFSET 0.000000 0.000000 0.000000
    CHANNELS 6 Xposition Yposition Zposition Zrotation Xrotation Yrotation
    JOINT Spine
    {
        OFFSET -0.000000 7.856138 0.000000
        CHANNELS 3 Zrotation Xrotation Yrotation
        JOINT Spine1
        {
            OFFSET -0.000000 20.830866 0.000000
            CHANNELS 3 Zrotation Xrotation Yrotation
            JOINT Neck
            {
                OFFSET -0.000000 20.745317 1.885938
                CHANNELS 3 Zrotation Xrotation Yrotation
                JOINT Head
                {
                    OFFSET -0.000000 13.412918 -1.916131
                    CHANNELS 3 Zrotation Xrotation Yrotation
                    End Site
                    {
                        OFFSET -0.000000 23.951641 0.000000
                    }
                }
            }
            JOINT LeftShoulder
            {
                OFFSET 3.826675 19.078362 -0.073511
                CHANNELS 3 Zrotation Xrotation Yrotation
                JOINT LeftArm
                {
                    OFFSET 10.442133 0.000000 0.000000
                    CHANNELS 3 Zrotation Xrotation Yrotation
                    JOINT LeftForeArm
                    {
                        OFFSET 37.051945 0.000000 0.000000
                        CHANNELS 3 Zrotation Xrotation Yrotation
                        JOINT LeftHand
                        {
                            OFFSET 24.394852 0.000000 0.000000
                            CHANNELS 3 Zrotation Xrotation Yrotation
                            End Site
                            {
                                OFFSET 14.370985 0.000000 0.000000
                            }
                        }
                    }
                }
            }
            JOINT RightShoulder
            {
                OFFSET -3.827599 19.078362 -0.073511
                CHANNELS 3 Zrotation Xrotation Yrotation
                JOINT RightArm
                {
                    OFFSET -10.442133 0.000000 0.000000
                    CHANNELS 3 Zrotation Xrotation Yrotation
                    JOINT RightForeArm
                    {
                        OFFSET -37.051945 0.000000 0.000000
                        CHANNELS 3 Zrotation Xrotation Yrotation
                        JOINT RightHand
                        {
                            OFFSET -24.394852 0.000000 0.000000
                            CHANNELS 3 Zrotation Xrotation Yrotation
                            End Site
                            {
                                OFFSET -14.370985 0.000000 0.000000
                            }
                        }
                    }
                }
            }
        }
    }
    JOINT LeftUpLeg
    {
        OFFSET 9.580656 0.000000 0.000000
        CHANNELS 3 Zrotation Xrotation Yrotation
        JOINT LeftLeg
        {
            OFFSET -0.000000 -43.769192 0.000000
            CHANNELS 3 Zrotation Xrotation Yrotation
            JOINT LeftFoot
            {
                OFFSET -0.000000 -42.531967 0.000000
                CHANNELS 3 Zrotation Xrotation Yrotation
                JOINT LeftToeBase
                {
                    OFFSET -0.000000 -6.227426 14.370985
                    CHANNELS 3 Zrotation Xrotation Yrotation
                    End Site
                    {
                        OFFSET -0.000000 0.000000 3.832262
                    }
                }
            }
        }
    }
    JOINT RightUpLeg
    {
        OFFSET -9.580656 0.000000 0.000000
        CHANNELS 3 Zrotation Xrotation Yrotation
        JOINT RightLeg
        {
            OFFSET -0.000000 -43.769192 0.000000
            CHANNELS 3 Zrotation Xrotation Yrotation
            JOINT RightFoot
            {
                OFFSET -0.000000 -42.531967 0.000000
                CHANNELS 3 Zrotation Xrotation Yrotation
                JOINT RightToeBase
                {
                    OFFSET -0.000000 -6.227426 14.370985
                    CHANNELS 3 Zrotation Xrotation Yrotation
                    End Site
                    {
                        OFFSET -0.000000 0.000000 3.832262
                    }
                }
            }
        }
    }
}
MOTION
Frames:    8
Frame Time:    0.008333
25.901722    101.016319    28.854454    0.676079    -1.557322    91.244415    -0.134141    -6.866511    2.320345    5.268281    2.892094    2.195274    4.872317    3.278920    0.142195    -0.578238    7.264325    -0.480594    -3.916121    12.923510    3.034335    -40.502243    56.589767    -27.172503    1.871834    -14.298398    -26.609716    0.709172    -13.785999    13.820563    0.517953    14.926617    -0.047600    45.742523    55.318199    20.070059    -4.768038    -15.425426    18.966408    -9.346679    -13.629445    -12.892406    8.333738    3.645742    3.054966    -4.707615    6.437677    8.429840    -17.710896    24.402504    10.994443    0.000000    0.000000    0.000000    -3.807861    -0.526074    -5.923572    1.699059    9.053389    -8.166885    17.636444    33.252701    -2.283301    0.000000    0.000000    0.000000    
26.335693    102.994514    28.816826    0.994715    -1.304462    91.326866    -0.359773    -7.191466    2.333803    5.134084    2.359149    2.250602    5.212637    4.055693    0.107752    -0.497830    8.584767    -0.508582    -4.264311    13.910572    2.543608    -40.073368    57.482395    -26.674196    2.629678    -15.216244    -26.769682    0.085392    -14.601773    14.032508    0.825172    15.739503    0.126302    46.351555    55.336407    19.242460    -4.634408    -15.242500    19.043829    -8.685379    -13.473488    -13.737907    7.524541    5.285063    2.630579    -2.888857    2.650399    9.221975    -20.211132    31.864952    13.054857    0.000000    0.000000    0.000000    -3.865362    1.617686    -5.652297    1.450719    4.662695    -9.566926    20.206858    39.665352    -6.306083    0.000000    0.000000    0.000000    
26.533922    104.762199    28.748672    0.892915    -0.925625    91.375122    -0.537375    -7.666694    2.423707    4.613558    2.118602    2.374315    5.670441    3.879514    -0.015226    -0.363878    10.103723    -0.683261    -4.379128    14.158621    2.242155    -39.754650    57.757767    -26.070681    2.804096    -15.054535    -27.283957    -2.508050    -14.708086    14.617578    1.486293    15.936703    0.173975    46.528687    56.310230    18.849226    -5.006489    -15.529879    18.379433    -7.727652    -13.835106    -13.872445    6.951053    6.048286    1.209113    -2.138949    -0.110238    10.821438    -18.739576    37.744999    13.498965    0.000000    0.000000    0.000000    -4.218976    2.222315    -4.580843    1.438926    2.718720    -12.255919    24.442825    42.611019    -11.055778    0.000000    0.000000    0.000000    
26.587408    106.413940    28.795683    0.589852    -0.954071    91.474335    -0.707234    -8.139911    2.542800    4.565797    1.866229    2.518661    6.132226    4.238636    -0.289834    -0.472220    10.206585    -1.007715    -3.671788    14.348778    1.700303    -40.377930    57.915775    -25.490961    2.862837    -14.827261    -27.793615    -3.736898    -14.570992    13.517406    1.819557    16.198818    -0.098378    46.938877    56.447765    18.166859    -5.368449    -15.363986    18.931824    -5.289886    -13.858550    -14.213583    6.814493    5.725072    0.881176    -1.543984    -0.698740    12.045720    -15.385075    41.540379    11.670841    0.000000    0.000000    0.000000    -4.132176    2.142681    -4.733079    1.576939    2.127407    -13.832624    25.800243    43.710835    -13.446408    0.000000    0.000000    0.000000    
26.605484    107.878944    28.891325    0.439631    -1.074226    91.296860    -0.833340    -8.316049    2.573607    4.902492    1.742380    2.559541    5.470495    4.082386    -0.340614    0.270715    10.827119    -0.955940    -4.285387    14.511601    2.000161    -38.814510    59.240829    -25.761553    4.143572    -15.333220    -28.945774    -7.067647    -15.101451    13.367176    1.693942    15.843884    0.449744    48.001381    57.034634    16.733007    -5.333744    -15.749706    19.481743    -4.999964    -14.263855    -14.173803    7.201621    5.375793    0.673957    -2.041473    -0.330679    12.118626    -13.844151    41.865341    11.425323    0.000000    0.000000    0.000000    -4.028596    1.841284    -4.670023    1.928202    2.715009    -14.421797    24.672844    43.414135    -12.804406    0.000000    0.000000    0.000000    
26.494492    109.174896    28.872990    -0.052308    -1.102168    91.238106    -0.519481    -8.832419    2.749932    4.194230    2.112495    2.712630    6.838130    4.513062    0.047266    -1.231503    8.869560    -0.773963    -3.514358    14.164899    1.982389    -39.062584    58.871670    -25.548618    4.032157    -14.334178    -29.896227    -7.533563    -14.133245    13.142907    2.481765    16.069643    -0.063847    46.528416    57.517326    17.606203    -5.421210    -16.332977    20.230917    -3.657160    -14.980718    -13.606689    7.266579    4.403457    0.504082    -2.355551    0.583340    11.428818    -13.926191    41.043362    12.065778    0.000000    0.000000    0.000000    -4.074716    0.794010    -6.255137    1.989752    4.004051    -13.761343    23.949945    44.172119    -12.146223    0.000000    0.000000    0.000000    
26.379898    110.470711    28.948706    0.039913    -1.218096    91.324883    -0.414248    -8.509787    2.688552    4.161848    2.272627    2.636725    6.161252    3.697235    0.174958    -0.150260    9.375072    -0.540650    -3.671849    13.532436    2.075980    -38.507442    60.015606    -25.207336    4.665826    -14.906106    -30.813469    -8.122195    -14.475574    11.801569    2.305005    15.631558    0.406407    47.528061    57.452885    16.607170    -5.408358    -16.835863    20.795063    -3.614823    -15.452414    -14.097394    7.551829    3.793739    0.871340    -2.719453    1.957417    10.592147    -12.110739    41.105812    10.921880    0.000000    0.000000    0.000000    -3.796660    0.097466    -8.028927    1.643283    5.962138    -13.325769    22.227018    45.375187    -10.523634    0.000000    0.000000    0.000000    
26.117077    111.573669    28.959930    -0.295060    -1.314785    91.172050    -0.441649    -8.352572    2.724752    4.672216    2.405017    2.658827    5.778728    2.961680    0.272779    -0.700069    8.947228    -0.469151    -4.611983    13.267076    2.698916    -37.080524    59.673531    -25.710808    4.516475    -14.377830    -31.850990    -8.650444    -13.988606    11.691833    1.671188    15.220145    0.527995    47.849026    57.752289    16.464041    -5.640699    -17.411909    21.160656    -3.149755    -16.033592    -13.923134    7.889859    2.735995    1.384877    -3.304187    3.288561    9.601851    -11.160116    41.186230    10.377123    0.000000    0.000000    0.000000    -3.747187    -1.260105    -9.337566    1.478399    8.359329    -11.838427    20.128370    45.068905    -8.943939    0.000000    0.000000    0.000000    
